<?xml version="1.0" encoding="UTF-8"?>
<svg id="Layer_2" data-name="Layer 2" xmlns="http://www.w3.org/2000/svg" viewBox="0 0 75.43 106.86">
  <defs>
    <style>
      .cls-1 {
        fill: #f8e8d6;
      }
    </style>
  </defs>
  <g id="Layer_1-2" data-name="Layer 1">
    <path class="cls-1" d="M18.95,13.55c-2.4,6.57.59,12.41,3.28,18.21-4.7,6.27-16.55,5.75-20.63,12.04-4.79,7.39,2.03,13.91,9.63,14.46,2.18.16,7.66-1.65,8.85.8.67,1.37-4.81,26.22-4.39,30.27-1.66,3-12.77,3.69-9.31,11.42,3.66,8.15,17.86,7.43,23.46,2.02,5.14-4.98,5.28-17.97,6.33-18.91,2.58-2.31,3.45,6.89,3.61,7.42,2.39,8.09,4.35,13.51,13.54,15.07,6.83,1.16,17.88-1.03,14.18-10.13-2.02-4.96-5.13-4.92-7.62-8.7-4.12-6.27-3.49-21.71-5.43-29.14.31-1.07,1.97-1.82,2.67-2.71,11.45,4.11,26.29-5.28,13.21-16-3.15-2.58-6.47-2.8-9.47-3.56-.51-.22-1.15-.42-1.9-.6-12.46-4.97-4.86-8.41-4.31-15.89.07-1.02-.43-4.32-.76-5.37-5.78-18.6-28.21-19.15-34.94-.7ZM30.84,98.54c.01,1.4-5.54,1.29-5.94,1.18-1.57-.43-2.41-2.42-3.81-3.27-1.19-.73-6.97.4-6.12-3.25.17-.71,1.8-2.44,2.11-2.44.37,0,.7,1.87,1.37,2.38.95.72,2.94-.1,3.92.32,1.45.62,1.39,2.1,2.17,2.7.77.59,6.27-.16,6.3,2.4ZM13.8,56.91c-.3,0-3.57-4.54-3.59-4.86-.09-2.01,2.14-3.27,2.15-3.62,0-.49-2.06-1.7-2.35-3.17-.13-.67.64-1.76.58-2.82-.05-.82-2.47-3,.48-3.55.17-.03,2.68,1.46,2.93,1.97.64,1.31-1.35,2.86-1.25,3.94.08.96,6.15,2.49.14,6.46,3.79.56,3.39,5.71.91,5.64ZM58.94,90.28c.52.87-2.78,5.43-3.58,6.12-1.41,1.2-3,.74-4,1.5-1.38,1.05-2.13,4.96-4.61,3.6-.49-.27-1.89-1.71-1.89-1.89,0-.32,1.87-.84,2.46-1.42,2.81-2.73,4.06-2.73,5.79-4.22.75-.65,4.03-6.69,5.84-3.69ZM39.02,67.65c-.79,3.71-6,2.07-4.39-.73,1.54-2.67,4.92-1.75,4.39.73ZM36.75,59.43c-4.32-2.8-1.98-6.99,2.08-3.59l-2.08,3.59ZM38.5,46.86c-2.32,4.05-5.88-.28-4.19-2.44,1.21-1.55,5.58.01,4.19,2.44ZM30.8,13.99c2.68-1.14,1.65,3.14.17,3.08-.84-.03-2.46-2.1-.17-3.08ZM30.51,21.84c3.78,1.08,6.33,2.82,9.32-1.08l1.62,1.74c-2.05,4.61-13.03,5.06-10.94-.66ZM61.05,40.07c2.09-1.5,3.5-3.08,5.07-.39-4.36,2.13-.03,4.32-.29,5.62-.26,1.27-3.38,1.92-3.36,2.12.03.24,1.52,1.47,1.86,2.6.83,2.74-3.62,6.25-5.43,2.9.46-.66,2.29-1.74,2.28-2.16,0-.44-2.18-1.8-1.89-3.16.3-1.44,3.29-3.1,3.3-3.54,0-.23-1.52-.81-1.54-3.99ZM41.97,15.51c-1.48,2.37-4.44.58-3.3-1.24,1.48-2.37,4.44-.58,3.3,1.24Z"/>
  </g>
</svg>