<?xml version="1.0" encoding="UTF-8"?>
<svg id="Layer_2" data-name="Layer 2" xmlns="http://www.w3.org/2000/svg" viewBox="0 0 90.13 90.5">
  <defs>
    <style>
      .cls-1 {
        fill: #f8e8d6;
      }
    </style>
  </defs>
  <g id="Layer_1-2" data-name="Layer 1">
    <g>
      <path class="cls-1" d="M43.95,43.99c.72-7.44-2.47-15.19-.4-22.46,2.2.42,2.26,2.88,2.6,4.63.45,2.28.97,16.82,1.78,17.12,3.14-1.33,7.93-11.73,7.5-14.06l-12.25-18.45-9.96,19.07c1.12,1.97,9.43,14.75,10.73,14.15Z"/>
      <path class="cls-1" d="M72.09,38.22c.43.92,1.23,1.76.57,2.82-.94,1.5-15.46,6.58-18.21,7.82-1.24.56-2.23.59-2.43,2.29,3.66-.14,9.46,3.31,12.48,2.46,1.26-.36,16.19-14.71,15.67-15.69l-21.34-5.51-6.99,13.36c.83,2.1,17.56-8.18,20.26-7.55Z"/>
      <path class="cls-1" d="M39.36,50.85c-5.58-3.08-14.76-5.29-19.88-8.24-1.17-.67-2.34-1.84-1.51-3.18l3.82-.32,18.1,8.76c.79.4,1.21-1.55,1.15-1.71l-11.05-14.5-21.16,6.58c.08,1.17,15.9,15.84,17.02,16.2,1.67.54,11.7-1.92,13.5-3.58Z"/>
      <path class="cls-1" d="M71.86,54.36c3.7-4.32,26.42-16.25,15.16-22.4-8.3-4.54-17.87-3.11-26.82-4.67-3.56-8.1-4.69-16.95-9.88-24.58l-7.53-2.71c-9.66,4-8.88,21.65-15.37,26.3-5.21,3.74-23.73-3-27.13,8.85-2.86,9.98,14.91,16.25,20.57,22.03.15,5.22-4.67,27.22-2.19,30.34,5.8,7.31,19.52-8.66,25.02-8.32,2.35.14,7.78,2.4,10.2,3.48,5.98,2.67,18.86,13.94,22.74,3.42,3.69-10-11.14-24.32-4.79-31.74ZM71.42,85.78c-8.21-1.18-18.67-9.87-26.35-10.34-3.74-.23-21.39,13.95-24.19,9.1-.69-1.19,3.57-23.66,3.17-27.28L2.45,38.51c.22-1.12.54-2.73,1.37-3.45.86-.74,18.61-4.47,21.92-5.69,10.13-3.73,9.8-18.27,18.06-24.75l14.85,24.29,27.56,6.94c1.08,2.22-17.79,17.17-18.92,20.28-1.63,4.49,7.79,27.88,4.12,29.65Z"/>
      <path class="cls-1" d="M42.98,58.52c-.81.41-7.93,12.24-10.19,13.77-.97.66-2.98-.25-3.1-.49-.61-1.18,11.03-14.21,12.41-16.77l-14.88,2.72-2.81,22.78c1.48,1.01,2.12,0,3.33-.38,2.27-.73,14.59-6.88,15.32-8.27.34-.65,1.22-9.63,1.32-11.29.07-1.12.69-3.13-1.4-2.06Z"/>
      <path class="cls-1" d="M63.39,57.9c-1.03-1.29-7.78-2.59-10.05-3.05-4.95-1.01.08,2.68.66,3.54,2.09,3.09,6.51,8.42,7.82,11.2.69,1.46,1.11,3.16-1.02,2.81-3.18-.52-11.4-16.15-13.05-15.33l-1.16,15.38,21.13,8.81c1.3-.57-3.52-22.33-4.34-23.36Z"/>
    </g>
  </g>
</svg>