<?xml version="1.0" encoding="UTF-8"?>
<svg id="Layer_2" data-name="Layer 2" xmlns="http://www.w3.org/2000/svg" viewBox="0 0 94.89 108.96">
  <defs>
    <style>
      .cls-1 {
        fill: #f8e8d6;
      }
    </style>
  </defs>
  <g id="Layer_1-2" data-name="Layer 1">
    <g>
      <path class="cls-1" d="M49.96,76.12c-2.84-1.84-5.52,1.14-6.85,3.62,3.64,2.56,12.98.36,6.85-3.62Z"/>
      <path class="cls-1" d="M56.52,80.74c4.82,2.08,7.75-5.51,2.31-5.59-1.5-.02-5.2,4.34-2.31,5.59Z"/>
      <path class="cls-1" d="M65.32,79.67c.1,1.08,9.45,1.71,9.75-1.61-3.96-3.74-7.16-3.28-9.75,1.61Z"/>
      <path class="cls-1" d="M39.2,80.04c1.63-5.65-6.91-5.93-8.29-.43.18,1.26,7.82,2.03,8.29.43Z"/>
      <path class="cls-1" d="M72.2,64.92l1.73-2.44c-1.85-1.66-4.24-3.12-5.8-.48l4.06,2.91Z"/>
      <path class="cls-1" d="M13.33,92.91c5.33,3.51,28.55,3.73,35.73,3.38,5.07-.25,31.02-2.96,33.57-5.09.84-.7,2.43-2.35,2.48-3.31.08-1.42-4.61-5.3-6.7-4.81-21.07,1.56-42.56-.34-63.43,2.06-3.62,2.78-6.67,4.46-1.65,7.77Z"/>
      <path class="cls-1" d="M28.1,80.08c-2.78-6.46-5.94-6.22-8.59-.03,1.11,1.69,8.57.89,8.59.03Z"/>
      <path class="cls-1" d="M35.97,64.79c2.63,1.48,5.06-.37,6.35-2.83-.25-2.1-13.31-1.09-6.35,2.83Z"/>
      <path class="cls-1" d="M72.36,50.92c-.38-9.18-2.16-20.99-11.6-24.95-1.41,1.57,2.56,2.41,2.67,3.14.02.15-1.6,2.41-1.74,2.43-.73.13-2.8-3.36-3.83-1.53,1.95,1.84,2.77,5.01,4.66,6.82,3.18,3.06,10.17,3.56,3.51,9.29-3.88,3.34-5.42-6.12-6.11-7.49-1.35-2.71-4.26-5.57-6.27-7.92-1.09,2.3,2.5,7.99,1.9,9.36-1.43,3.27-4.85-.54-4.17-3.62-1.51.41-1.51,8.91-1.13,10.22.62,2.13,2.93,3.24,3.11,5.22.41,4.53-6.11,6.35-7.71,1.27-.79-2.52,1.28-4.35,1.46-6.69.23-3.06-.58-6.8-.02-10.03-.54-2.06-1.35.23-1.8,1.03-1.02,1.81-.72,4.5-4.01,2.81l1.63-7.43c-3.83-.88-6.73,9.72-9.15,11.89-13.24-2.29,2.56-10.13,5.48-14.52-1.21-1.19-2.35,1.52-3.78.89-.82-.36-1.59-2.73-2.24-2.76-3.65-.18-9.95,13.37-9.23,18-.9,2.1-3.03,10.48-.62,11.7l47.31-.37c2.33-.93,1.77-4.64,1.68-6.76Z"/>
      <path class="cls-1" d="M25.8,65.98l4.32-4.16c-.04-.33-6.31-1.15-6.62-1.04-2.18.76.2,4.96,2.3,5.2Z"/>
      <path class="cls-1" d="M12.56,74.08c-3.56,8.97-4.33,6.25-9.64,11.24-5.68,5.35-2.29,9.31,3.49,12.33,9.9,5.18,24.1,2.7,31.08,5.59,3.67,1.52,3.58,5.45,10.91,5.7,7.3.25,6.37-4.43,10.47-6.06,2.92-1.16,16.64-1.45,21.77-2.73,5.45-1.36,18.1-4.4,13.13-12.23-2.78-4.39-8.23-6.17-10.6-11.87-2.18-5.23-1.85-18.92-2.76-25.34-1.36-9.53-2.49-20.66-10.94-26.92-2.68-1.98-8.43-3.23-10.27-5.4C55.81,14.44,60.37-.84,49.08.04c-10.34.81-5.83,13.11-8.7,17.1-1.73,2.39-10.26,4.73-13.68,7.98-14.11,13.41-7.57,32.45-14.13,48.97ZM48.98,6.61c1.16.08,2.8,2.08,4.02,2.71l-4.74,3.98c-3.52-1.23-1.86-6.87.72-6.69ZM30.36,26.32c10.38-7.74,26.7-9.03,37.08-.45,10.95,9.05,6.47,34.1,10.73,47.02,2.17,6.57,8.12,8.68,9.93,13.41,5.14,13.42-27.73,9.79-32.25,12.48-2.57,1.53-1.88,7.11-7.29,7.6-6.2.56-6.2-5.57-8.94-6.78-2.16-.95-13.91-.42-17.42-.96-3.43-.53-9.22-1.66-12.07-3.42-2.48-1.54-3.69-5.17-2.77-7.86.96-2.84,3.74-2.87,5.73-5.14,11.21-12.79-.84-42.41,17.27-55.91Z"/>
      <path class="cls-1" d="M25,72.21c1.56.61,4.91,3.19,5.21,3.14.24-.04,1.54-2.15,2.73-2.82,4.59-2.59,8.15,3,9.46,2.89.43-.04,2.93-3.42,5.53-3.39,2.92.03,4.43,2.77,5.85,2.87.45.03,2.28-1.79,3.57-2.14,5.57-1.48,6.84,2.77,7.26,2.72.54-.07,5.74-5.5,9.83-3.43.3-6.24-3.1-4.06-7.53-6.66-5.79,5.5-7.04,1.17-10.58,1.02-1.89-.08-4.93,4.64-9.07,1.61-.98-.72-2.62-3.61-3.06-3.51-.2.04-1.63,2.27-2.73,3-5.76,3.81-8.28-2.34-10.05-2.19-.36.03-2.24,2.54-4.16,3.02-1.95.49-4.51-.99-4.82-.88-.58.19-2.15,4.26-2.09,4.56.41,2.1,2.95-.48,4.64.18Z"/>
      <path class="cls-1" d="M55.11,61.28l-7.5.19c-1.03,6.76,5.45,5.23,7.5-.19Z"/>
      <path class="cls-1" d="M58.44,61.81c-1.33,3.18,4.9,4.76,6.08.08-.08-.8-5.3-1.95-6.08-.08Z"/>
    </g>
  </g>
</svg>