<?xml version="1.0" encoding="UTF-8"?>
<svg id="Layer_2" data-name="Layer 2" xmlns="http://www.w3.org/2000/svg" viewBox="0 0 103.23 121.75">
  <defs>
    <style>
      .cls-1 {
        fill: #f8e8d6;
      }
    </style>
  </defs>
  <g id="Layer_1-2" data-name="Layer 1">
    <path class="cls-1" d="M23.67,109.71c1.4-.03,2.69-.88,3.38-.9,2.1-.07,11.59-.58,12.62-.11,6.36,2.87-2.33,11.4,7.6,13,2.5.4,10.63-1.21,12.49-2.8,2.36-2.02,1.46-6.21,2.56-8.04,6.7-11.08,45.9,3.61,40.39-19.66-1.82-7.69-13.17-17.5-13.15-18.7.01-.85,4.68-4.44,5.27-7.27,2.33-11.22-14.45-18.92-19.87-26.46,5.34-2.61,7.41-6.89,4.8-12.41-3.03-6.41-20.65-23.76-27.37-25.89-1.55-.49-5.71-.65-7.16-.19-6.33,2.01-23.38,20.38-26.25,26.73-4.86,10.77.17,9.35,7.19,14.68-6.9,9.94-28.74,22-13,34.24-6.67,5.13-12.49,11.89-12.57,20.64,0,.64-1.14,1.14-.24,3.16,4.39,9.94,13.92,10.19,23.33,9.98ZM81.16,51.46c-.17.9-4.6,3.09-5.52.75-1.44-3.66,6.13-3.93,5.52-.75ZM55.52,6.63c1.84,1.72-1.83,5.03-2.73,4.86-3.17-.6-.14-7.54,2.73-4.86ZM64,24.43l-4.14,2.81c-4.56-5.13.94-9.03,4.14-2.81ZM37.96,15.6c2.16-.67,3.45,2.95,3.11,3.74-2.35,5.37-10.05-1.6-3.11-3.74ZM22.52,36.33c-.22-.55.51-3.57,1.42-3.96,1.94-.83,4.05,2.12,5.02,2.26.89.12,2.07-1.15,3.38-.71.89.3,1.61,1.88,2.13,1.96.95.14,2.68-2.26,4.4-2.27,1.19,0,2.36,2.17,3.89,2.24,1.21.06,5.27-1.6,7.57-1.81,6.2-.57,13.19-.21,18.74-.39,2.04-.07,4.23-3.48,4.99.27.91,4.45-5.1,3.04-7.1,3.33-7.8,1.11-14.39.99-21.49,1.32-7.49.34-12.01,1.11-19.13-1.41-1.14-.4-3.11.94-3.82-.82ZM69.9,62.64c-3.73,4.67-7.22-1.67-4.77-3.61,2.1-1.66,7.04.77,4.77,3.61ZM51.19,48.28l-3.56,5.42-1.55-4.98,5.11-.44ZM29.62,55.69c1.89,1.69-1.91,5.03-2.73,4.85-3.59-.77-1.36-8.51,2.73-4.85ZM13.74,71.01c.89-5.57,6.09,1.06,6.63,1.11.94.08,2.78-2.19,3.27-2.12.47.07,1.76,3.25,2.25,3.33.38.07,2.5-2.33,4.41-2.4,7.4-.28,20.33,3.91,26.75,2.57.87-.18,2.1-1.96,3.22-1.93,1.21.04,1.59,1.87,2.25,1.98.46.08,6.95-2.52,8.82-2.63,3.91-.23,6.14.16,11.1-1.48,1.36-.45,1.84-2.31,3.3-2.37,2.52-.22,1.83,4.15-.42,5.58-2.29,1.45-4.44.83-6.66,1.41-3.98,1.04-4.25.83-7.07,1.28-5.5.89-15.26,3.24-20.38,3.02-2.08-.09-6.8-2.06-9.3-2.18-1.88-.09-6.86,1.31-8.13,1.14-2.72-.38-6.53-1.67-10.45-1.83-2.73-.11-10.49,1.22-9.58-4.48ZM94.69,91.83c-2.96,3.65-6.36-2.14-4.17-4.4,2.05-2.1,5.83,2.34,4.17,4.4ZM77.01,82.68c-1.84-1.72,1.83-5.03,2.73-4.86,3.17.6.14,7.54-2.73,4.86ZM64.1,95.71c-2.32-.43-2.87-6.46,1.89-6.1,3.06,1.8-.17,6.42-1.89,6.1ZM44.88,87c-2.9-.55-1.84-6.09,1.06-5.54,2.9.55,1.84,6.09-1.06,5.54ZM27.19,93c7.47-4.58,5.96,4.39,2.26,3.15-.75-.25-1.52-2.36-2.26-3.15ZM11.73,85.39c5.17.19,5.26,3.02.73,5.52l-.73-5.52ZM5.35,101.79h0c2.15-5.26,3.81-1.43,5.93-.85,7.15,1.98,15.04-2,20.36-.87,5.01,1.06,16.37,1.63,22.62,1.05,5.32-.49,10.7-1.48,14.93-1.97,6.12-.7,19.51.2,23.67-1.01,2.26-.66,6.62-5.8,5.81-.53-.59,3.84-3.01,4.36-6.69,4.85-5.93.8-13.03-1.1-18.2-.87-14.15.64-29.7,6.74-45.37,3.86-.18-.03-.53-1.4-1.14-1.43-.97-.04-2.66,1.97-4.41,2.21-.54.07-8.52-1.03-10.07-1.11-3.26-.17-4.56,2.03-7.43-3.34h0Z"/>
  </g>
</svg>