<?xml version="1.0" encoding="UTF-8"?>
<svg id="Layer_2" data-name="Layer 2" xmlns="http://www.w3.org/2000/svg" viewBox="0 0 103.16 94.31">
  <defs>
    <style>
      .cls-1 {
        fill: #f9e6d3;
      }
    </style>
  </defs>
  <g id="Layer_1-2" data-name="Layer 1">
    <path class="cls-1" d="M95.54,43.21c-2.21-.34-4.93.41-6.75-.03-.93-.22-1.73-4.11-5.44-4.85-2.43-.49-9.39,2.58-9.24.33.05-.73,6.97-2.38,7.04-7.95.02-1.58-1.35-3.51-.96-4.9.36-1.29,3.27-2.3,4.45-3.6,8.63-9.57-5.4-21.37-14.08-15.07-3.11,2.26-3.55,6.26-5.46,8.53-1.52,1.81-4.65,2.51-5.73,3.77-.78.9-2.53,10.12-4.28,7.72-.2-.28-.05-4.83-.67-6.83-1.18-3.83-4.88-5.03-5.82-7.17-1.03-2.33-.19-4.88-.72-7.28-2.23-10.04-23.01-7-20.74,7.73.29,1.89,1.78,3.41,1.95,5.15.25,2.55-1.32,4.92-.99,7.82.44,3.77,4.39,4.74,3.98,8.59-2.95-.27-5.35-2.32-8.51-2.09-2.42.18-3.82,2.3-5.91,2.13-3.67-.29-5.33-6.01-12.53-1.49-7.61,4.77-6.44,17.2,1.38,20.53,4.29,1.83,5.61-.47,7.88.07,1.72.41,2.49,3.35,5.23,3.86,3.25.6,6.26-1.2,9.45-1-.27,3.38-3.93,4.26-5.1,7.47-.98,2.69.46,5.02-.33,6.51-.67,1.27-2.98,1.84-4,3.08-7.4,9,5.77,21.46,14.99,16,3.28-1.94,3.13-7.21,4.68-8.82,4.16-4.33,3.64-.25,7.68-8.81,3.68-7.78,3.98,4.14,5.16,5.98,1.35,2.09,4.65,2.26,5.43,3.57,1.12,1.89-.19,4.7,1.42,7.58,4.2,7.53,18.7,5.59,19.02-4.16.11-3.27-2.79-5.3-2.96-7.98-.24-3.96,5.01-8.2-1-13.41,3.96,1.57,7.78-2.05,10.48-2.1,2.28-.04,3.97,1.74,6.09,2.05,14.01,2.1,17.11-19.05,4.88-20.91ZM95.65,55.21c-2.68,2.57-5.36-.57-8.11-1.01-8.81-1.41-18.64-.94-27.44-3.05-.17,2.9,3.41,3,5,5.5.81,1.27,1.12,2.15-.52,2.5-3.41.71-4.31-4.26-7.48-3.99,3.14,8.74,5.86,18.3,9.79,26.7.65,1.39,6.28,6.96,1.67,8.28-4.8,1.37-4.17-5.77-4.95-8-2.95-8.4-7.03-16.42-9.53-24.98l-3.5,7.99c-4.39-.62-.72-5.08-1.5-7.99-.82-1.11-15.89,20.06-16.83,21.66-1.3,2.21-2.18,10.47-7.21,6.9-4.19-2.97,2.67-6.43,4.05-8.07,6.11-7.28,10.82-16.2,17.01-23.48-2.73-.64-7.32,3.33-9.4,2.88-1.03-.22-2.16-2.13-1.6-2.88.47-.62,8.3-2.35,8.99-4-10.1-1.33-20.48-3.28-30.64-3.96-2.09-.14-4.19,1.13-5.65.79-2.75-.65-3.58-3.89-.68-5.39,2.44-1.26,3.36,1.08,5.56,1.47,10.34,1.85,21.9,2.11,32.42,3.06-1.41-2.86-5.31-3.85-7.01-6.49-.84-1.31-1.02-2.28.53-2.5,2.13-.3,9,6.57,9.47,6-3.85-8.99-6.37-20.11-10.79-28.7-1.6-3.1-5.72-4.06-3.1-7.68,5.06-7,5.78,5.41,6.38,7.4,2.76,9.13,7.64,17.86,10.53,26.97l2.97-9.51,2.01-.48.5,7.99c4.73-6.68,11.83-14.23,15.91-21.09.94-1.58.7-3.9,1.51-5.24,3.21-5.29,10.91,4.23,1.05,6.78l-16.96,24.55c2.4.52,10.73-5.26,11.99-3.99,3.16,3.19-6.56,5.62-7.51,5.99-1.19.47-1.88-.76-1.49,2,8.59.11,18.12,2.7,26.5,3.01,3.69.14,10.03-4.05,8.06,4.06Z"/>
  </g>
</svg>