<?xml version="1.0" encoding="UTF-8"?>
<svg id="Layer_2" data-name="Layer 2" xmlns="http://www.w3.org/2000/svg" viewBox="0 0 88.25 94.65">
  <defs>
    <style>
      .cls-1 {
        fill: #f8e8d6;
      }
    </style>
  </defs>
  <g id="Layer_1-2" data-name="Layer 1">
    <g>
      <path class="cls-1" d="M23.6,21.89c-4.54,2.45-7.03,4.3-5.98,9.99,5.36.57,6.16-5.9,5.98-9.99Z"/>
      <path class="cls-1" d="M32.25,23.8c4.56-1.94,6.53-5.59,3.24-9.83-5.91,1.15-9.88,5.96-3.24,9.83Z"/>
      <path class="cls-1" d="M24.29,33.04c-5.39.43-4.28,7.4.79,6.91,4.92-.47,2.93-7.21-.79-6.91Z"/>
      <path class="cls-1" d="M43.6,7.89c-.93.97-5.79,2.74-5.98,3.02-2.01,2.91,8.19,5.92,5.98-3.02Z"/>
      <path class="cls-1" d="M33.12,33.89c-3.05.81-.81,6.39,1.85,5.92,4.18-.73,2.17-6.99-1.85-5.92Z"/>
      <path class="cls-1" d="M27.61,24.89c-.88,2.11.44,9.32,3.97,6.99,2.46-1.63.14-7.88-3.97-6.99Z"/>
      <path class="cls-1" d="M68.6,19.88c-1.57-2.72-.25-9.34-1.44-11.05-2.82-4.08-7.08,1.62-5.08,6.03.42.92,5.58,5.96,6.52,5.03Z"/>
      <path class="cls-1" d="M52.81,22.17c1.93,6.31,8.96-1.02,6.58-5.08-2.36-4.02-8.6-1.52-6.58,5.08Z"/>
      <path class="cls-1" d="M40.98,19.91c1.42,8.44,9.6,1.74,7.48-1.86-1.35-2.31-8.27-2.89-7.48,1.86Z"/>
      <path class="cls-1" d="M52.59,12.39l-4.97-3.49c-.57,5.1,1.21,8.37,4.97,3.49Z"/>
      <path class="cls-1" d="M12.12,38.88c2.12.65,4.23-1.88,4.3-3.66,0-.28-1.62-5.13-1.82-5.34-2.01-2.09-6.36,7.8-2.48,8.99Z"/>
      <path class="cls-1" d="M75.61,34.89c-.45,4.39.03,6.69,4.99,5.99,1.27-2.18-3.95-7.2-4.99-5.99Z"/>
      <path class="cls-1" d="M70.61,28.89c-1.09,4.28,4.82,6.27,3.99,2.51-.18-.82-3.27-3.26-3.99-2.51Z"/>
      <path class="cls-1" d="M75.68,21.29c-1.76-4.9-1.16-15.3-5.77-17.73-4.78-2.52-12.02-1.71-11,5-.99,1.06-5.78-3.16-7-4-3.61-2.52-4.57-5.81-9.5-4.07C35.12,3.07,4.61,28.72,1.42,35.55c-2.84,6.08-1.27,7.23,3.5,10.01h0c3.75,2.19,6.06,2.32,9,6h0s.96,35.59.96,35.59c-.26,1.07.83,1.84,1.04,2.41,0,0,0,0,0,0,.88,2.37,1.54,3.15,4.73,3.77,11.04,2.16,31.24,1.24,42.81.27,6.02-.51,8.8-1.35,11.46-7.04,3.94-8.42-2.84-32.92,3.91-38.59,1.93-1.62,8.32-2.57,8.93-3.56,3.25-5.27-10.39-18.44-12.07-23.11ZM19.97,84.11c-.18,1.72-.4,4.46-3.05,2.45,1.42-12.05-1.05-26.66,0-39h3c-.92,11.66,1.24,25.11.05,36.55ZM26.92,84.06c0,3.37-4,2.66-4,1v-36c0-1.06,2.84-1.9,4-1.5v36.5ZM53.94,88.99c-.88-.8-1.12-3.89-3-2.42-.48.37.02,3.81-3.38,2.89-2.14-.58-2.13-3.32-2.65-3.89-.7-.77-1.77,3.05-3.9,3.55-1.98.46-4.12-1.6-4.11-3.56-5.32,6.75-8.94,2.5-7.98-5l3.98,3.99c1.89-5.83,5.88-6.98,7.02,0,.92.7,3.08-4.64,4.58-4.96,2.48-.53,3.2,3.8,3.42,3.96.49.35,6.41-7.9,7.99,1.99,1.9-.22,1.32-3.36,2.98-4.51,3.59-2.48,1.71,14-4.97,7.95ZM31.88,64.02c1.64-1.08,9.41-.42,10.79.77,2.27,1.97,2,10.99-2.25,11.76-1.27.23-8.77.23-9.36-.14-1.83-1.14-1.35-10.97.82-12.39ZM31.85,46.99c1.16-.81,8.86-.8,10.1.03,2.06,1.36,2.62,10.26.82,11.4-.57.36-10.14.36-10.71,0-1.23-.77-1.98-10.19-.21-11.42ZM54.36,76.6c-5.83-.74-3.87-11.23-1.81-11.9,6.05-1.98,10.41-.21,10.43,6.35.03,6.39-2.43,6.34-8.62,5.56ZM61.92,58.56c-2.91.15-6.5,2.01-9.86.86-1.94-3.71-.8-7.93-1.14-11.86,9.48-3.43,14.82,1.28,11,11ZM67.92,86.56c-.98.1-2.01-.06-3,0,.35-8.62-.5-17.41,0-26.01h0c.21-3.73,1.91-8.64,1-13.01h2.99l-1,39.01ZM73.92,81.56h0c-.2,1.73.09,2.73-1.47,4.12-1.64,1.46-2.39-.15-2.53-.12l1-38.01h2.99c-.91,10.77,1.25,23.49,0,34.01h0ZM72.06,45.9c-6.83.19-16.1-.82-23.46-1.01-13.78-.36-27.96-1.67-42-1-6.27-3.44-1.15-9.55,2.02-13.48,4.29-5.32,27.25-23.38,33.29-25.77,2.41-.96,6.57-.13,8.69,1.25,1.19.77,6.35,6.95,7.5,6.98,2.38-1.68.75-5.36,2.89-7.08,1.95-1.56,4.47-.65,6.61-.9,5.25,3.29,2.57,13.59,4.2,19.3,1.47,5.12,27.7,20.93.26,21.72Z"/>
      <path class="cls-1" d="M64.62,38.37c1.59,4.37,7.96,2.31,6.99-2.48-1.61-1.53-7.79.26-6.99,2.48Z"/>
      <path class="cls-1" d="M54.46,28.05c-.16-.27-4.88-3.17-5.34-3.2-1.4-.09-3.25,4.05-.98,7.01,4.08,5.31,7.51-1.78,6.32-3.81Z"/>
      <path class="cls-1" d="M62.62,20.89c-.1,4.74-6.39,6.48-2.06,11.54,5.11,5.97,11.09-8.88,2.06-11.54Z"/>
      <path class="cls-1" d="M38.23,23.95c-3.74.66-2.33,8.98.87,8.99,5.81,0,3.03-9.67-.87-8.99Z"/>
      <path class="cls-1" d="M42.06,35.88c-1.13,2.56,4.13,5.36,5.54,4.01,1.89-1.81-3.18-9.35-5.54-4.01Z"/>
      <path class="cls-1" d="M57.11,32.89c-12.13,9.68,6.92,9.38,3.3,3.17-.31-.54-3.31-1.49-3.3-3.17Z"/>
    </g>
  </g>
</svg>