<?xml version="1.0" encoding="UTF-8"?>
<svg id="Layer_2" data-name="Layer 2" xmlns="http://www.w3.org/2000/svg" viewBox="0 0 85.94 104.51">
  <defs>
    <style>
      .cls-1 {
        fill: #f8e8d5;
      }
    </style>
  </defs>
  <g id="Layer_1-2" data-name="Layer 1">
    <path class="cls-1" d="M46.58.17c-14.86,1.41-23.24,12.26-29.15,24.84C12.06,36.43-.28,76.73,0,88.39c.26,10.95,8.25,19.58,19.54,14.75,6.91-2.96,13.15-30.29,14.96-38.04,1.95-8.35,3.82-32.49,10.33-36.67,3.66-2.34,8.27-2.62,10.97.94,5.17,6.81-2.67,19.53,9.29,25.71,10.89,5.64,19.39-3.21,20.58-13.81C88.33,17.9,70.29-2.08,46.58.17ZM3.8,91.89c-.38-2.02.91-2.4,2.42-3.07,2.59-1.15,17.2-6.42,19.29-6.73,1.28-.19,3.28.23,3.26,1.31-.04,2.69-23.35,9.86-24.97,8.49ZM29.18,69.97c-2.57,2.08-15.09,5.36-18.84,5.99-1.63.27-2.01,1.71-3.53-.57-.39-2.08,2.03-2.21,3.33-2.65,2.43-.82,18.94-6.56,19.66-5.83.2.21.33,2.31-.62,3.07ZM27.78,55.38c-1.97.84-14.26,4.25-14.98,3.51-.26-.27-.28-2.48.58-3.09.82-.58,18.64-5.55,19.41-4.9.31,2.67-3.1,3.67-5.01,4.48ZM19.8,39.89c-.26-.27-.28-2.48.58-3.09.69-.49,15.81-4.49,16.41-3.9,4.29,4.19-16.3,7.7-16.99,6.99ZM39.35,23.94c-1.17,0-13.13-2.5-13.54-3.06-.61-.84.54-2.54,1.67-2.88.62-.18,11,1.57,12.79,1.92,4.01.79,3.04,4-.92,4.01ZM52.79,22.89c-2.19,2.49-9.41-13.61-7.99-15.99,2.21-.4,2.69,1.45,3.54,2.95.99,1.73,5.39,11.97,4.44,13.05ZM61.8,29.89c-.64-.67.87-17.55,4.99-16.99.39,1.99-.65,21.55-4.99,16.99ZM65.32,46.9c-1.52-.21-1.38-1.19-.52-2.5.89-1.37,11.62-13.3,12.52-13.5l2.48,2.48c-3.56,2.11-10.77,14.04-14.48,13.52Z"/>
  </g>
</svg>